<svg width="24" height="22" viewBox="0 0 24 22" fill="none" xmlns="http://www.w3.org/2000/svg">
<path d="M23.3124 11.0974C22.9304 11.0974 22.6248 11.3897 22.6248 11.7551V17.7374C22.6248 19.3645 21.2394 20.6847 19.5433 20.6847H4.45671C2.75552 20.6847 1.37521 19.3596 1.37521 17.7374V11.6577C1.37521 11.2923 1.06961 11 0.687606 11C0.305603 11 0 11.2923 0 11.6577V17.7374C0 20.0903 2.0017 22 4.45671 22H19.5433C22.0034 22 24 20.0855 24 17.7374V11.7551C24 11.3946 23.6944 11.0974 23.3124 11.0974Z" fill="white"/>
<path d="M11.5243 16.7961C11.6552 16.9286 11.8314 17 12.0025 17C12.1737 17 12.3499 16.9337 12.4807 16.7961L16.7999 12.4225C17.0667 12.1523 17.0667 11.719 16.7999 11.4489C16.5331 11.1787 16.1052 11.1787 15.8384 11.4489L12.6821 14.6501V0.688156C12.6821 0.305847 12.3801 0 12.0025 0C11.625 0 11.3229 0.305847 11.3229 0.688156V14.6501L8.16159 11.4489C7.89479 11.1787 7.4669 11.1787 7.2001 11.4489C6.9333 11.719 6.9333 12.1523 7.2001 12.4225L11.5243 16.7961Z" fill="white"/>
</svg>
