<svg width="13" height="16" viewBox="0 0 13 16" fill="none" xmlns="http://www.w3.org/2000/svg">
<path d="M12.2241 4.08184C12.5312 3.77325 12.7002 3.36344 12.7002 2.9275C12.7002 2.49156 12.5312 2.08174 12.2241 1.77315L10.9354 0.478392C10.6283 0.169805 10.2204 0 9.78656 0C9.35269 0 8.94481 0.169805 8.6385 0.477575L0 9.13026V12.7345H3.58556L12.2241 4.08184ZM9.78656 1.63274L11.076 2.92668L9.78412 4.21981L8.4955 2.92586L9.78656 1.63274ZM1.625 11.1018V9.80785L7.345 4.07858L8.63363 5.37334L2.91444 11.1018H1.625ZM0 14.3673H13V16H0V14.3673Z" fill="#0DB874"/>
</svg>
