<svg width="49" height="21" viewBox="0 0 49 9" fill="none" xmlns="http://www.w3.org/2000/svg">
<path d="M35.1172 6.13898H47.5288" stroke="#242933" stroke-linecap="round"/>
<path d="M35.1172 10.139H47.5288" stroke="#242933" stroke-linecap="round"/>
<path d="M35.1172 14.139H47.5288" stroke="#242933" stroke-linecap="round"/>
<path d="M1.21393 9.64485C0.934622 9.64692 0.706377 9.86986 0.704127 10.1428C0.701878 10.4157 0.926476 10.6353 1.20578 10.6332L1.21393 9.64485ZM15.0486 10.0361L15.0612 9.54189L15.0527 9.54195L15.0486 10.0361ZM26.5501 10.1389L26.5375 10.6331C26.7921 10.6354 27.0117 10.4523 27.05 10.2058C27.0884 9.95923 26.9337 9.72612 26.6888 9.66162L26.5501 10.1389ZM20.0287 6.99292C19.8076 6.82953 19.49 6.87431 19.3193 7.09293C19.1486 7.31156 19.1895 7.62124 19.4106 7.78463L20.0287 6.99292ZM1.20578 10.6332L15.0446 10.5303L15.0527 9.54195L1.21393 9.64485L1.20578 10.6332ZM15.0361 10.5303L26.5375 10.6331L26.5626 9.64475L15.0612 9.54196L15.0361 10.5303ZM26.5501 10.1389C26.6888 9.66162 26.6889 9.66163 26.6889 9.66163C26.6888 9.66162 26.6888 9.66162 26.6888 9.66161C26.6887 9.66158 26.6885 9.66154 26.6883 9.66148C26.6878 9.66136 26.6871 9.66116 26.686 9.66088C26.6839 9.66033 26.6807 9.65947 26.6764 9.65831C26.6676 9.65599 26.6545 9.65246 26.6371 9.64776C26.6022 9.63836 26.5504 9.62427 26.4836 9.60574C26.3499 9.56869 26.1559 9.51394 25.9167 9.44358C25.4379 9.30276 24.7793 9.09989 24.0596 8.85164C22.6001 8.34817 20.9602 7.68132 20.0287 6.99292L19.4106 7.78463C20.4785 8.5738 22.2538 9.28202 23.7097 9.78423C24.4477 10.0388 25.1218 10.2464 25.6113 10.3904C25.8562 10.4624 26.0553 10.5186 26.1936 10.557C26.2628 10.5761 26.3167 10.5908 26.3536 10.6008C26.3721 10.6057 26.3863 10.6095 26.396 10.6121C26.4008 10.6134 26.4045 10.6144 26.4071 10.6151C26.4084 10.6154 26.4094 10.6157 26.4101 10.6159C26.4105 10.616 26.4107 10.6161 26.4109 10.6161C26.4111 10.6161 26.4112 10.6162 26.4112 10.6162C26.4113 10.6162 26.4113 10.6162 26.5501 10.1389Z" fill="#242933"/>
<path d="M20.0261 12.2577C19.8075 12.4293 19.7729 12.7391 19.9488 12.9497C20.1248 13.1602 20.4446 13.1918 20.6632 13.0202L20.0261 12.2577ZM26.4724 9.6534C24.6234 9.94282 22.1728 10.5727 20.0261 12.2577L20.6632 13.0202C22.611 11.4913 24.8597 10.9012 26.6285 10.6244L26.4724 9.6534Z" fill="#242933"/>
</svg>
