<?xml version="1.0" encoding="UTF-8"?> <svg xmlns="http://www.w3.org/2000/svg" width="47" height="22" viewBox="0 0 47 10" fill="none"><path d="M33.7825 7.13895H45.7825" stroke="black" stroke-linecap="round"></path><path d="M33.7825 11.139H45.7825" stroke="black" stroke-linecap="round"></path><path d="M33.7825 15.139H45.7825" stroke="black" stroke-linecap="round"></path><path d="M0.996153 10.639C0.720019 10.6412 0.497889 10.8667 0.500013 11.1429C0.502136 11.419 0.727709 11.6411 1.00384 11.639L0.996153 10.639ZM14.3798 11.0361L14.3844 10.5361L14.376 10.5361L14.3798 11.0361ZM25.4998 11.1389L25.4952 11.6389C25.7466 11.6412 25.9606 11.4565 25.9951 11.2075C26.0296 10.9585 25.8738 10.7226 25.6312 10.6565L25.4998 11.1389ZM19.1995 7.99153C18.9802 7.82383 18.6664 7.86574 18.4987 8.08513C18.331 8.30453 18.3729 8.61832 18.5923 8.78602L19.1995 7.99153ZM1.00384 11.639L14.3836 11.5361L14.376 10.5361L0.996153 10.639L1.00384 11.639ZM14.3752 11.5361L25.4952 11.6389L25.5044 10.6389L14.3844 10.5362L14.3752 11.5361ZM25.4998 11.1389C25.6312 10.6565 25.6313 10.6565 25.6313 10.6565C25.6312 10.6565 25.6312 10.6565 25.6312 10.6565C25.6311 10.6565 25.631 10.6564 25.6307 10.6564C25.6303 10.6562 25.6296 10.656 25.6286 10.6558C25.6266 10.6552 25.6234 10.6544 25.6192 10.6532C25.6108 10.6509 25.5981 10.6474 25.5813 10.6427C25.5477 10.6333 25.4977 10.6192 25.4331 10.6007C25.3039 10.5637 25.1165 10.509 24.8853 10.4386C24.4226 10.2979 23.7861 10.0951 23.0908 9.84701C21.6796 9.34351 20.0971 8.67761 19.1995 7.99153L18.5923 8.78602C19.6278 9.5775 21.3473 10.2867 22.7547 10.7889C23.4687 11.0436 24.1208 11.2513 24.5943 11.3953C24.8312 11.4674 25.0238 11.5237 25.1576 11.562C25.2245 11.5812 25.2767 11.5959 25.3124 11.6059C25.3303 11.6108 25.344 11.6146 25.3534 11.6172C25.3581 11.6185 25.3617 11.6195 25.3642 11.6202C25.3655 11.6205 25.3665 11.6208 25.3671 11.621C25.3675 11.6211 25.3678 11.6212 25.368 11.6212C25.3681 11.6213 25.3682 11.6213 25.3682 11.6213C25.3683 11.6213 25.3684 11.6213 25.4998 11.1389Z" fill="black"></path><path d="M19.1851 13.2508C18.9707 13.4248 18.938 13.7397 19.1121 13.9541C19.2861 14.1685 19.601 14.2012 19.8154 14.0271L19.1851 13.2508ZM25.4203 10.6453C23.6319 10.9348 21.2614 11.5651 19.1851 13.2508L19.8154 14.0271C21.6977 12.4989 23.8707 11.9092 25.5801 11.6324L25.4203 10.6453Z" fill="black"></path></svg> 