<svg width="248" height="154" viewBox="0 0 248 154" fill="none" xmlns="http://www.w3.org/2000/svg">
<g filter="url(#filter0_d)">
<path d="M14 130C14 115.555 16.8452 101.251 22.3733 87.9048C27.9013 74.559 36.0038 62.4327 46.2183 52.2183C56.4327 42.0038 68.559 33.9013 81.9048 28.3733C95.2506 22.8452 109.555 20 124 20C138.445 20 152.749 22.8452 166.095 28.3733C179.441 33.9013 191.567 42.0038 201.782 52.2183C211.996 62.4327 220.099 74.559 225.627 87.9048C231.155 101.251 234 115.555 234 130" stroke="url(#paint0_linear)" stroke-width="8" stroke-linecap="round" stroke-linejoin="round"/>
</g>
<g filter="url(#filter1_d)">
<circle cx="124.5" cy="20.5" r="12.5" fill="#E0E0E0"/>
<circle cx="124.5" cy="20.5" r="11" stroke="white" stroke-width="3"/>
</g>
<defs>
<filter id="filter0_d" x="0" y="16" width="248" height="138" filterUnits="userSpaceOnUse" color-interpolation-filters="sRGB">
<feFlood flood-opacity="0" result="BackgroundImageFix"/>
<feColorMatrix in="SourceAlpha" type="matrix" values="0 0 0 0 0 0 0 0 0 0 0 0 0 0 0 0 0 0 127 0"/>
<feOffset dy="10"/>
<feGaussianBlur stdDeviation="5"/>
<feColorMatrix type="matrix" values="0 0 0 0 0 0 0 0 0 0 0 0 0 0 0 0 0 0 0.25 0"/>
<feBlend mode="normal" in2="BackgroundImageFix" result="effect1_dropShadow"/>
<feBlend mode="normal" in="SourceGraphic" in2="effect1_dropShadow" result="shape"/>
</filter>
<filter id="filter1_d" x="102" y="0" width="45" height="45" filterUnits="userSpaceOnUse" color-interpolation-filters="sRGB">
<feFlood flood-opacity="0" result="BackgroundImageFix"/>
<feColorMatrix in="SourceAlpha" type="matrix" values="0 0 0 0 0 0 0 0 0 0 0 0 0 0 0 0 0 0 127 0"/>
<feOffset dy="2"/>
<feGaussianBlur stdDeviation="5"/>
<feColorMatrix type="matrix" values="0 0 0 0 0 0 0 0 0 0 0 0 0 0 0 0 0 0 0.25 0"/>
<feBlend mode="normal" in2="BackgroundImageFix" result="effect1_dropShadow"/>
<feBlend mode="normal" in="SourceGraphic" in2="effect1_dropShadow" result="shape"/>
</filter>
<linearGradient id="paint0_linear" x1="234" y1="137" x2="48.0204" y2="216.543" gradientUnits="userSpaceOnUse">
<stop stop-color="#FF855E"/>
<stop offset="0.171875" stop-color="#FFC98A"/>
<stop offset="0.432292" stop-color="#FFE0B7"/>
<stop offset="1" stop-color="#A9F7B2"/>
</linearGradient>
</defs>
</svg>
