<svg width="70" height="17" viewBox="0 0 70 17" fill="none" xmlns="http://www.w3.org/2000/svg">
<g clip-path="url(#clip0)">
<path d="M23.36 2.61215H19.226C18.961 2.61215 18.696 2.82465 18.643 3.09028L17 13.7153C16.947 13.9278 17.106 14.0872 17.318 14.0872H19.279C19.544 14.0872 19.809 13.8747 19.862 13.609L20.286 10.7403C20.339 10.4747 20.551 10.2622 20.869 10.2622H22.194C24.897 10.2622 26.487 8.93403 26.911 6.3309C27.07 5.21528 26.911 4.31215 26.381 3.67465C25.798 2.98403 24.738 2.61215 23.36 2.61215ZM23.837 6.49028C23.625 7.97778 22.459 7.97778 21.399 7.97778H20.763L21.187 5.21528C21.187 5.0559 21.346 4.94965 21.505 4.94965H21.77C22.512 4.94965 23.201 4.94965 23.572 5.37465C23.837 5.58715 23.943 5.95903 23.837 6.49028Z" fill="#003087"/>
<path d="M35.656 6.43716H33.695C33.536 6.43716 33.377 6.54341 33.377 6.70279L33.271 7.23404L33.112 7.02154C32.688 6.38404 31.734 6.17154 30.78 6.17154C28.607 6.17154 26.752 7.81842 26.381 10.1559C26.169 11.3247 26.434 12.4403 27.123 13.184C27.706 13.8747 28.607 14.1934 29.614 14.1934C31.363 14.1934 32.37 13.0778 32.37 13.0778L32.264 13.609C32.211 13.8215 32.37 14.034 32.582 14.034H34.384C34.649 14.034 34.914 13.8215 34.967 13.5559L36.027 6.75591C36.08 6.64966 35.868 6.43716 35.656 6.43716ZM32.953 10.2622C32.741 11.3778 31.893 12.1747 30.727 12.1747C30.144 12.1747 29.72 12.0153 29.402 11.6434C29.084 11.2715 28.978 10.7934 29.084 10.2622C29.243 9.14654 30.197 8.34966 31.31 8.34966C31.893 8.34966 32.317 8.56216 32.635 8.88091C32.9 9.25279 33.006 9.73092 32.953 10.2622Z" fill="#003087"/>
<path d="M46.203 6.43716H44.242C44.03 6.43716 43.871 6.54341 43.765 6.70279L41.009 10.7403L39.843 6.86216C39.79 6.59654 39.525 6.43716 39.313 6.43716H37.352C37.14 6.43716 36.928 6.64966 37.034 6.91529L39.207 13.3434L37.14 16.2122C36.981 16.4247 37.14 16.7434 37.405 16.7434H39.366C39.578 16.7434 39.737 16.6372 39.843 16.4778L46.468 6.91529C46.627 6.75591 46.468 6.43716 46.203 6.43716Z" fill="#003087"/>
<path d="M52.775 2.61215H48.641C48.376 2.61215 48.111 2.82465 48.058 3.09028L46.415 13.6622C46.362 13.8747 46.521 14.034 46.733 14.034H48.853C49.065 14.034 49.224 13.8747 49.224 13.7153L49.701 10.6872C49.754 10.4215 49.966 10.209 50.284 10.209H51.609C54.312 10.209 55.902 8.8809 56.326 6.27778C56.485 5.16215 56.326 4.25903 55.796 3.62153C55.16 2.98403 54.153 2.61215 52.775 2.61215ZM53.252 6.49028C53.04 7.97778 51.874 7.97778 50.814 7.97778H50.178L50.602 5.21528C50.602 5.0559 50.761 4.94965 50.92 4.94965H51.185C51.927 4.94965 52.616 4.94965 52.987 5.37465C53.252 5.58715 53.305 5.95903 53.252 6.49028Z" fill="#009CDE"/>
<path d="M65.071 6.43716H63.11C62.951 6.43716 62.792 6.54341 62.792 6.70279L62.686 7.23404L62.527 7.02154C62.103 6.38404 61.149 6.17154 60.195 6.17154C58.022 6.17154 56.167 7.81842 55.796 10.1559C55.584 11.3247 55.849 12.4403 56.538 13.184C57.121 13.8747 58.022 14.1934 59.029 14.1934C60.778 14.1934 61.785 13.0778 61.785 13.0778L61.679 13.609C61.626 13.8215 61.785 14.034 61.997 14.034H63.799C64.064 14.034 64.329 13.8215 64.382 13.5559L65.442 6.75591C65.442 6.64966 65.283 6.43716 65.071 6.43716ZM62.315 10.2622C62.103 11.3778 61.255 12.1747 60.089 12.1747C59.506 12.1747 59.082 12.0153 58.764 11.6434C58.446 11.2715 58.34 10.7934 58.446 10.2622C58.605 9.14654 59.559 8.34966 60.672 8.34966C61.255 8.34966 61.679 8.56216 61.997 8.88091C62.315 9.25279 62.421 9.73092 62.315 10.2622Z" fill="#009CDE"/>
<path d="M67.403 2.87778L65.707 13.6622C65.654 13.8747 65.813 14.034 66.025 14.034H67.721C67.986 14.034 68.251 13.8215 68.304 13.5559L70 2.98403C70.053 2.77153 69.894 2.61215 69.682 2.61215H67.774C67.562 2.61215 67.456 2.7184 67.403 2.87778Z" fill="#009CDE"/>
</g>
<path d="M10.4525 5.04688C10.5925 3.93126 10.4525 3.18751 9.891 2.49688C9.282 1.75313 8.2055 1.38126 6.8485 1.38126H2.8695C2.6355 1.38126 2.355 1.64688 2.3075 1.91251L0.669502 13.7063C0.669502 13.9188 0.810002 14.1844 1.044 14.1844H3.478L3.3375 15.3531C3.2905 15.5656 3.431 15.725 3.618 15.725H5.678C5.9125 15.725 6.146 15.5656 6.193 15.3V15.1406L6.614 12.3781V12.2719C6.661 12.0063 6.895 11.7938 7.129 11.7938H7.4105C9.4225 11.7938 10.9675 10.8906 11.4355 8.23438C11.6695 7.11876 11.5765 6.21563 11.0145 5.57813C10.874 5.36563 10.6395 5.20626 10.4525 5.04688Z" fill="#009CDE"/>
<path d="M10.4525 5.04688C10.5925 3.93126 10.4525 3.18751 9.891 2.49688C9.282 1.75313 8.2055 1.38126 6.8485 1.38126H2.8695C2.6355 1.38126 2.355 1.64688 2.3075 1.91251L0.669502 13.7063C0.669502 13.9188 0.810002 14.1844 1.044 14.1844H3.478L4.1335 9.775L4.0865 9.93438C4.1335 9.61563 4.3675 9.40313 4.648 9.40313H5.818C8.112 9.40313 9.891 8.34063 10.4525 5.36563C10.406 5.20626 10.4525 5.15313 10.4525 5.04688Z" fill="#012169"/>
<path d="M4.7425 5.04688C4.7885 4.88751 4.8825 4.72813 5.023 4.62188C5.116 4.62188 5.163 4.56876 5.2565 4.56876H8.346C8.721 4.56876 9.0945 4.62188 9.3765 4.67501C9.4695 4.67501 9.5635 4.67501 9.657 4.72813C9.7505 4.78126 9.844 4.78126 9.891 4.83438C9.9375 4.83438 9.984 4.83438 10.0315 4.83438C10.1715 4.88751 10.312 4.99376 10.4525 5.04688C10.5925 3.93126 10.4525 3.18751 9.891 2.44376C9.329 1.70001 8.253 1.38126 6.895 1.38126H2.8695C2.6355 1.38126 2.355 1.59376 2.3075 1.91251L0.669502 13.7063C0.669502 13.9188 0.810002 14.1844 1.044 14.1844H3.478L4.1335 9.775L4.7425 5.04688Z" fill="#003087"/>
<defs>
<clipPath id="clip0">
<rect x="17" width="53" height="17" fill="white"/>
</clipPath>
</defs>
</svg>
