<svg width="10" height="14" viewBox="0 0 10 14" fill="none" xmlns="http://www.w3.org/2000/svg">
<path d="M4.22481 9.33333C4.22481 8.63041 4.37985 8.05114 4.68992 7.59554C5.01292 7.12692 5.47804 6.61925 6.08527 6.07253C6.55039 5.65597 6.89276 5.298 7.1124 4.99861C7.34496 4.68619 7.46124 4.33473 7.46124 3.94421C7.46124 3.39749 7.2416 2.95491 6.80233 2.61646C6.36305 2.27801 5.77519 2.10879 5.03876 2.10879C3.64341 2.10879 2.59044 2.60995 1.87984 3.61227L0 2.38215C0.555556 1.61413 1.27261 1.02836 2.15116 0.624826C3.02972 0.208275 4.06331 0 5.25194 0C6.69897 0 7.84884 0.318922 8.70155 0.956765C9.56718 1.58159 10 2.44723 10 3.5537C10 4.0874 9.90956 4.55602 9.72868 4.95955C9.56072 5.36309 9.354 5.70804 9.10853 5.99442C8.86305 6.26778 8.54005 6.5867 8.13953 6.95119C7.64858 7.39377 7.28036 7.78429 7.03488 8.12274C6.80233 8.46118 6.68605 8.86471 6.68605 9.33333H4.22481ZM5.46512 14C5.01292 14 4.63824 13.8568 4.34109 13.5704C4.05685 13.271 3.91473 12.9066 3.91473 12.477C3.91473 12.0474 4.05685 11.6894 4.34109 11.4031C4.63824 11.1167 5.01292 10.9735 5.46512 10.9735C5.90439 10.9735 6.26615 11.1167 6.55039 11.4031C6.84755 11.6894 6.99612 12.0474 6.99612 12.477C6.99612 12.9066 6.84755 13.271 6.55039 13.5704C6.26615 13.8568 5.90439 14 5.46512 14Z" fill="white"/>
</svg>
