<svg width="12" height="11" viewBox="0 0 12 11" fill="none" xmlns="http://www.w3.org/2000/svg">
<path d="M11.9839 4.10324C11.9643 4.04928 11.9276 4.00249 11.8788 3.96939C11.8301 3.93628 11.7717 3.91851 11.7119 3.91854H7.65433L6.2716 0.183329C6.25173 0.129712 6.21494 0.0832924 6.16629 0.0504608C6.11764 0.0176292 6.05952 0 5.99994 0C5.94036 0 5.88225 0.0176292 5.8336 0.0504608C5.78495 0.0832924 5.74815 0.129712 5.72828 0.183329L4.34541 3.91854H0.288298C0.165687 3.91854 0.0564753 3.99267 0.015845 4.10324C-0.00372057 4.15726 -0.00520324 4.21574 0.0116023 4.27059C0.0284078 4.32545 0.0626694 4.37395 0.10964 4.40939L3.27736 6.80367L1.85962 10.6334C1.84003 10.6868 1.83814 10.7446 1.85421 10.7991C1.87028 10.8536 1.90354 10.902 1.94946 10.9378C1.99537 10.9736 2.05173 10.995 2.11085 10.9992C2.16997 11.0033 2.229 10.99 2.2799 10.961L5.99973 8.83088L9.71955 10.961C9.77046 10.99 9.8295 11.0034 9.88866 10.9993C9.94781 10.9951 10.0042 10.9737 10.0501 10.9379C10.0961 10.9021 10.1294 10.8537 10.1454 10.7992C10.1615 10.7447 10.1596 10.6868 10.14 10.6334L8.72224 6.80367L11.8908 4.40939C11.9377 4.37392 11.9719 4.32537 11.9886 4.27051C12.0053 4.21564 12.0036 4.15718 11.9839 4.10324Z" fill="#F5CB5C"/>
</svg>
