<svg width="75" height="24" viewBox="0 0 75 24" fill="none" xmlns="http://www.w3.org/2000/svg">
<path d="M0 3.81427H10.3345V6.46688H3.31566V10.0253H9.90392V12.6994H3.31566V19.1692H0V3.81427Z" fill="#242933"/>
<path d="M22.959 8.23528V19.1692H19.751V17.5518C19.4209 18.1125 18.9544 18.551 18.3515 18.8673C17.7487 19.1836 17.0669 19.3417 16.3061 19.3417C15.3588 19.3417 14.5191 19.1117 13.7871 18.6516C13.0694 18.1916 12.5025 17.5374 12.0862 16.6891C11.6843 15.8265 11.4834 14.8345 11.4834 13.713C11.4834 12.5916 11.6843 11.5924 12.0862 10.7154C12.5025 9.83835 13.0766 9.16262 13.8086 8.68817C14.5407 8.19934 15.3732 7.95493 16.3061 7.95493C17.0669 7.95493 17.7487 8.12027 18.3515 8.45094C18.9544 8.78162 19.4209 9.22732 19.751 9.78803V8.23528H22.959ZM17.2535 16.8617C18.0573 16.8617 18.6745 16.5885 19.1051 16.0422C19.5357 15.4958 19.751 14.7051 19.751 13.6699C19.751 12.6347 19.5357 11.844 19.1051 11.2976C18.6745 10.7369 18.0573 10.4566 17.2535 10.4566C16.4497 10.4566 15.8253 10.7441 15.3803 11.3192C14.9354 11.8943 14.7129 12.6922 14.7129 13.713C14.7129 14.7338 14.9282 15.5174 15.3588 16.0637C15.8038 16.5957 16.4353 16.8617 17.2535 16.8617Z" fill="#242933"/>
<path d="M29.76 19.3417C27.6931 19.3417 26.064 18.896 24.8727 18.0047L25.7339 15.7402C26.308 16.1572 26.9468 16.4807 27.6501 16.7107C28.3534 16.9264 29.0711 17.0342 29.8031 17.0342C30.3629 17.0342 30.7935 16.9479 31.0949 16.7754C31.3963 16.6029 31.5471 16.3513 31.5471 16.0206C31.5471 15.7474 31.4394 15.5318 31.2241 15.3736C31.0088 15.2155 30.6284 15.0789 30.083 14.9639L28.296 14.5541C27.2482 14.3241 26.4731 13.9574 25.9707 13.4542C25.4827 12.951 25.2387 12.2825 25.2387 11.4486C25.2387 10.7729 25.4325 10.169 25.82 9.63707C26.2219 9.10511 26.7745 8.69536 27.4778 8.40781C28.1812 8.10589 28.9921 7.95493 29.9107 7.95493C30.6858 7.95493 31.4466 8.07713 32.193 8.32155C32.9393 8.55159 33.6068 8.88226 34.1953 9.31358L33.291 11.4917C32.7312 11.1036 32.1571 10.8088 31.5686 10.6075C30.9944 10.4063 30.4347 10.3056 29.8892 10.3056C29.3581 10.3056 28.9419 10.3991 28.6405 10.586C28.339 10.7729 28.1883 11.0317 28.1883 11.3623C28.1883 11.6068 28.2745 11.808 28.4467 11.9662C28.6333 12.11 28.9562 12.2322 29.4156 12.3328L31.2456 12.7426C32.3652 13.0014 33.1762 13.3895 33.6785 13.9071C34.1809 14.4247 34.4321 15.1148 34.4321 15.9775C34.4321 17.0126 34.0159 17.8321 33.1833 18.436C32.3508 19.0398 31.2097 19.3417 29.76 19.3417Z" fill="#242933"/>
<path d="M40.397 10.6722V14.9207C40.397 15.5246 40.5549 15.9703 40.8707 16.2578C41.1864 16.531 41.5955 16.6676 42.0979 16.6676C42.4137 16.6676 42.7725 16.6172 43.1744 16.5166V19.0398C42.6577 19.2411 42.0333 19.3417 41.3013 19.3417C39.952 19.3417 38.9186 18.9607 38.2009 18.1987C37.4976 17.4368 37.1459 16.3656 37.1459 14.9854V10.6722H35.079V8.23528H37.1459V5.66894L40.397 4.61221V8.23528H43.1744V10.6722H40.397Z" fill="#242933"/>
<path d="M44.8427 8.23528H48.0937V19.1692H44.8427V8.23528Z" fill="#242933"/>
<path d="M57.4898 7.95493C60.0735 7.95493 61.3653 9.48611 61.3653 12.5485V19.1692H58.1142V12.6994C58.1142 11.9374 57.9707 11.3839 57.6836 11.0389C57.4109 10.6794 56.9731 10.4997 56.3703 10.4997C55.6526 10.4997 55.0785 10.7297 54.6478 11.1898C54.2172 11.6499 54.0019 12.2681 54.0019 13.0445V19.1692H50.7509V11.3623C50.7509 10.1978 50.6935 9.15543 50.5786 8.23528H53.6359L53.8512 9.96056C54.2388 9.31358 54.7411 8.81757 55.3583 8.47251C55.9899 8.12746 56.7004 7.95493 57.4898 7.95493Z" fill="#242933"/>
<path d="M75 8.23528V18.6732C75 20.4128 74.4976 21.7356 73.4929 22.6413C72.4881 23.5471 71.0241 24 69.1007 24C67.3639 24 65.8568 23.6621 64.5794 22.9864L65.0745 20.571C66.3951 21.2324 67.7012 21.563 68.9931 21.563C69.926 21.563 70.6222 21.3402 71.0815 20.8945C71.5408 20.4632 71.7705 19.8018 71.7705 18.9104V17.0126C71.426 17.5446 70.9451 17.9903 70.3279 18.3497C69.7107 18.6948 69.0289 18.8673 68.2826 18.8673C67.3352 18.8673 66.4955 18.6444 65.7635 18.1987C65.0315 17.7387 64.4574 17.0989 64.0411 16.2794C63.6248 15.4455 63.4167 14.4894 63.4167 13.4111C63.4167 12.3328 63.6248 11.3839 64.0411 10.5644C64.4574 9.73052 65.0315 9.09073 65.7635 8.64504C66.4955 8.18497 67.3352 7.95493 68.2826 7.95493C69.0433 7.95493 69.7323 8.12027 70.3495 8.45094C70.9667 8.78162 71.4403 9.22732 71.7705 9.78803V8.23528H75ZM69.2299 16.3872C70.0193 16.3872 70.6365 16.1284 71.0815 15.6108C71.5408 15.0789 71.7705 14.3456 71.7705 13.4111C71.7705 12.491 71.548 11.7721 71.103 11.2545C70.6581 10.7226 70.0337 10.4566 69.2299 10.4566C68.4261 10.4566 67.7945 10.7226 67.3352 11.2545C66.8759 11.7721 66.6463 12.491 66.6463 13.4111C66.6463 14.3313 66.8759 15.0573 67.3352 15.5893C67.7945 16.1212 68.4261 16.3872 69.2299 16.3872Z" fill="#242933"/>
<path d="M49.0413 2.39621C49.0413 3.71961 47.9702 4.79243 46.649 4.79243C45.3278 4.79243 44.2568 3.71961 44.2568 2.39621C44.2568 1.07282 45.3278 0 46.649 0C47.9702 0 49.0413 1.07282 49.0413 2.39621Z" fill="#0DB874"/>
</svg>
